<svg version="1.1" id="Layer_1" xmlns="http://www.w3.org/2000/svg" xmlns:xlink="http://www.w3.org/1999/xlink" x="0px" y="0px"
	 width="100%" viewBox="0 0 713 150" enable-background="new 0 0 713 150" xml:space="preserve">
<path fill="#828282" opacity="1.000000" stroke="none" 
	d="
M1.000000,66.000000 
	C1.000000,44.338856 1.000000,22.677708 1.000000,1.012422 
	C238.600586,1.008281 476.201172,1.008281 713.900879,1.008281 
	C713.900879,50.921001 713.900879,100.842270 713.900879,150.881775 
	C476.333374,150.881775 238.666702,150.881775 1.000000,150.881775 
	C1.000000,129.923508 1.000000,108.928734 1.324897,87.665497 
	C7.618878,118.315361 32.992153,141.964401 67.609428,140.161865 
	C108.995674,138.006851 133.567871,101.179047 127.114044,65.287643 
	C122.070969,37.241795 97.676712,14.640229 70.445961,13.032373 
	C38.817909,11.164876 11.823852,29.497587 3.330286,58.596508 
	C2.605530,61.079517 1.779164,63.532871 1.000000,66.000000 
M691.921082,82.849350 
	C691.638916,82.980782 691.343933,83.023369 690.952881,82.089844 
	C690.076050,70.352051 689.199219,58.614254 688.328491,46.958229 
	C684.773743,46.958229 681.896606,46.958229 678.751709,46.958229 
	C678.836060,48.399982 678.850159,49.377769 678.956238,50.345478 
	C681.115051,70.047058 683.225708,89.754272 685.503723,109.442123 
	C685.931213,113.136322 686.309875,116.341347 681.434570,116.257256 
	C681.434570,119.795631 681.434570,122.858063 681.434570,125.864212 
	C694.919922,127.345161 698.028137,125.012718 699.168274,111.950829 
	C700.269104,99.340233 700.977539,86.694397 701.779907,74.059067 
	C702.348022,65.111313 702.785461,56.155262 703.296021,46.937286 
	C699.955627,46.937286 697.091675,46.937286 693.890625,46.937286 
	C693.368835,59.150284 692.864807,70.948242 691.921082,82.849350 
M287.380096,74.266983 
	C287.634918,74.484367 287.846619,74.737770 287.689636,75.613640 
	C283.633423,79.169067 277.852844,81.558327 277.479645,87.852051 
	C277.086823,94.476486 276.976624,101.211983 277.789429,107.769234 
	C278.136139,110.566437 280.635284,113.938370 283.118347,115.319077 
	C284.650146,116.170830 287.996490,113.759193 290.655701,112.765015 
	C290.749481,113.120590 291.093719,114.425888 291.397095,115.576126 
	C294.716217,115.576126 297.647858,115.576126 300.683228,115.576126 
	C300.860565,114.642731 301.086945,114.011902 301.084625,113.381912 
	C301.021942,96.217430 300.987976,79.052452 300.795197,61.889290 
	C300.767609,59.434509 300.167877,56.924084 299.456360,54.552380 
	C298.102814,50.040417 295.163391,47.012947 290.284149,46.556477 
	C285.141113,46.075336 281.066711,48.582241 279.763550,53.234348 
	C277.926910,59.790668 277.304810,66.687210 276.070892,73.985519 
	C280.750488,73.985519 283.860382,73.985519 287.380096,74.266983 
M202.489853,76.354370 
	C199.407104,79.913788 194.498718,83.088654 193.649826,87.118622 
	C192.211258,93.948036 192.865250,101.368172 193.629608,108.432877 
	C193.908890,111.014381 196.575592,114.072151 198.986877,115.410362 
	C200.412140,116.201355 203.469116,114.052254 205.874374,113.196075 
	C207.986389,118.821983 212.741516,114.979752 216.407883,115.713806 
	C216.407883,96.886925 216.428391,78.765121 216.373154,60.643543 
	C216.368149,59.003567 216.025833,57.323086 215.582169,55.733418 
	C213.968231,49.950405 210.586899,46.831287 205.781219,46.513840 
	C200.850464,46.188122 196.625702,48.527065 195.027435,54.354332 
	C193.319351,60.581982 193.066635,67.208794 192.065155,74.485970 
	C196.720520,74.168861 199.820282,73.957718 202.935989,74.458511 
	C202.948822,74.932861 202.961639,75.407204 202.489853,76.354370 
M604.218506,48.999374 
	C603.538513,48.999012 602.858521,48.998650 602.025940,48.223717 
	C598.669128,47.456467 595.312317,46.689217 591.494751,45.816654 
	C591.365479,48.691715 591.243591,50.157185 591.242310,51.622757 
	C591.228394,67.443077 591.193665,83.263611 591.268677,99.083588 
	C591.282776,102.064507 591.216248,105.229774 592.165710,107.970932 
	C593.130066,110.754860 594.785400,114.133408 597.122375,115.331177 
	C598.841248,116.212128 602.145813,113.999336 604.780273,113.153442 
	C605.805786,116.392342 608.038208,117.003540 615.671631,115.143280 
	C615.671631,92.469521 615.671631,69.765030 615.671631,46.519302 
	C611.824646,47.516537 607.572693,44.005390 604.218506,48.999374 
M382.052704,111.209206 
	C384.116699,116.962044 389.762146,117.810341 395.838898,113.257637 
	C399.010590,117.794312 403.321503,115.516586 407.803345,115.563347 
	C407.803345,107.720993 407.878326,100.271133 407.786530,92.823318 
	C407.632843,80.355728 407.682037,67.870781 406.931854,55.436218 
	C406.752869,52.469196 404.336151,48.782082 401.827240,47.148041 
	C400.437469,46.242920 396.726013,48.902607 394.084106,49.946346 
	C393.994598,49.532360 393.701935,48.178905 393.372437,46.655144 
	C388.696991,46.504314 384.067596,45.330097 380.298950,49.126003 
	C377.437744,43.946404 373.007507,47.621578 369.236053,46.510723 
	C369.236053,69.915115 369.236053,92.650215 369.236053,115.325256 
	C378.517273,116.834526 379.016785,116.622902 382.052704,111.209206 
M536.814575,115.836700 
	C539.420837,115.836700 542.027161,115.836700 544.764893,115.836700 
	C544.764893,95.272682 544.999084,75.316223 544.507690,55.377628 
	C544.435547,52.450066 541.470581,48.410378 538.787476,47.169037 
	C537.145935,46.409580 533.488770,50.006794 530.622070,51.715813 
	C525.367432,44.805489 523.993286,44.652493 518.177979,51.256245 
	C517.935669,49.750168 517.710815,48.352745 517.473511,46.878197 
	C513.988586,46.878197 510.737610,46.878197 507.496429,46.878197 
	C507.496429,69.988396 507.496429,92.719383 507.496429,115.436256 
	C511.090759,115.436256 514.290710,115.436256 517.707642,115.436256 
	C518.000854,96.376709 517.475830,77.754204 518.007080,59.169163 
	C518.879028,59.170319 519.751038,59.171474 520.622986,59.172630 
	C520.622986,77.929611 520.622986,96.686592 520.622986,115.239510 
	C531.328369,116.902161 531.309570,116.902115 531.331726,107.597115 
	C531.365479,93.433159 531.394287,79.268967 531.517395,65.105682 
	C531.534790,63.105797 532.072754,61.110432 532.369751,59.112976 
	C532.876892,59.103527 533.384094,59.094078 533.891235,59.084629 
	C534.218506,61.043041 534.816772,62.999622 534.830017,64.960167 
	C534.932800,80.124374 534.891663,95.289551 534.989929,110.453812 
	C535.001038,112.175285 535.598755,113.892960 536.814575,115.836700 
M563.451904,62.589355 
	C563.451904,80.178246 563.451904,97.767128 563.451904,115.498116 
	C567.504333,115.498116 570.545959,115.498116 573.985962,115.498116 
	C573.985962,113.285217 573.984802,111.480476 573.986206,109.675735 
	C573.997681,94.851440 573.972290,80.026917 574.064880,65.203133 
	C574.077637,63.156052 574.675354,61.112629 575.002319,59.067513 
	C575.566772,59.131779 576.131287,59.196045 576.695740,59.260311 
	C576.897644,61.143223 577.264160,63.025177 577.275146,64.909203 
	C577.358337,79.232750 577.379211,93.556686 577.404724,107.880531 
	C577.419922,116.419106 577.408569,116.429131 585.834106,115.832092 
	C586.448914,115.788528 587.042847,115.450111 587.827820,115.188309 
	C587.827820,96.592659 587.847900,78.125168 587.796204,59.657864 
	C587.791138,57.842911 587.828125,55.760239 586.999573,54.273312 
	C585.477295,51.541584 583.324829,49.161034 581.435059,46.634094 
	C579.221069,48.311138 576.990601,49.967190 574.809570,51.686073 
	C574.449707,51.969662 574.306824,52.528503 573.797852,53.431854 
	C570.037903,45.505943 565.775330,43.775364 560.541809,51.802616 
	C560.224609,49.677143 560.014038,48.266251 559.800476,46.834908 
	C556.445679,46.834908 553.348938,46.834908 550.178589,46.834908 
	C550.178589,69.900185 550.178589,92.631721 550.178589,115.545303 
	C553.583191,115.545303 556.635498,115.545303 560.171631,115.545303 
	C560.171631,113.386909 560.171631,111.589149 560.171631,109.791389 
	C560.171387,94.967018 560.135071,80.142464 560.211975,65.318497 
	C560.222778,63.232239 560.787231,61.148857 561.095398,59.064140 
	C561.570312,59.076752 562.045288,59.089367 562.520203,59.101978 
	C562.813904,59.976540 563.107544,60.851101 563.451904,62.589355 
M267.591705,67.475334 
	C269.533173,67.384636 271.474640,67.293945 274.178406,67.167648 
	C273.669373,58.839298 273.378601,51.041775 272.607391,43.292061 
	C272.372009,40.926727 271.133759,38.487091 269.807404,36.435360 
	C264.783691,28.664110 255.716278,28.677397 251.293564,36.799320 
	C249.218353,40.610229 247.866150,45.277241 247.737549,49.602398 
	C247.282242,64.916695 247.400909,80.251663 247.524094,95.577011 
	C247.554626,99.375359 248.093857,103.245346 248.976852,106.944542 
	C250.560196,113.577835 254.736496,117.427399 259.897156,117.678749 
	C265.018372,117.928185 269.943817,114.601440 271.390717,107.786575 
	C273.191193,99.306374 273.539795,90.517906 274.549225,81.562027 
	C269.712128,81.562027 266.335510,81.562027 261.773254,81.562027 
	C261.773254,89.032990 261.773254,96.144188 261.773254,103.255394 
	C261.118561,103.291977 260.463867,103.328568 259.809174,103.365150 
	C259.468109,102.084206 258.834290,100.804169 258.830292,99.522179 
	C258.777954,82.691895 258.783752,65.861153 258.887634,49.031216 
	C258.895874,47.693855 259.737488,46.361641 260.191803,45.027035 
	C260.667816,45.103706 261.143829,45.180378 261.619812,45.257046 
	C261.844055,46.795403 262.220825,48.329510 262.263763,49.872910 
	C262.388947,54.369419 262.593170,58.880890 262.355927,63.364777 
	C262.173309,66.815788 263.623840,67.865738 267.591705,67.475334 
M425.080597,109.480789 
	C424.749756,111.552689 424.418915,113.624596 424.088074,115.696495 
	C420.323853,110.149803 418.101044,109.422981 411.031525,111.753616 
	C411.248535,113.795166 411.311707,115.951324 411.730499,118.036049 
	C412.986664,124.289253 416.241180,127.635422 421.196991,128.004257 
	C427.520966,128.474915 431.733185,126.094864 433.888519,119.918884 
	C435.066742,116.542740 435.591400,112.782654 435.624115,109.188553 
	C435.802795,89.565498 435.743286,69.940224 435.739777,50.315716 
	C435.739594,49.213783 435.509552,48.111893 435.330261,46.506355 
	C432.919586,46.506355 430.640320,46.031746 428.707733,46.646648 
	C426.953735,47.204739 425.577148,48.948978 424.658936,49.675781 
	C422.095612,48.639313 418.963989,46.226383 417.364655,46.996334 
	C414.992157,48.138489 413.403595,51.382923 412.065521,54.028015 
	C411.216644,55.706100 411.212463,57.919155 411.199615,59.894707 
	C411.125977,71.202469 411.006256,82.514503 411.262329,93.816933 
	C411.335449,97.044975 412.090149,100.487366 413.451080,103.402557 
	C415.488617,107.767059 418.851440,108.201920 422.792969,105.365906 
	C423.364899,104.954376 424.045776,104.694260 425.097198,104.143631 
	C425.097198,106.004723 425.097198,107.322510 425.080597,109.480789 
M464.557983,99.814384 
	C464.097748,101.041862 463.637482,102.269333 463.177246,103.496811 
	C461.581573,102.137535 460.970123,100.938126 460.966492,99.736877 
	C460.915253,82.765579 460.913208,65.793808 461.023895,48.822975 
	C461.032379,47.523655 461.978516,46.230450 462.488831,44.934399 
	C463.112213,45.031712 463.735626,45.129025 464.359009,45.226337 
	C464.359009,52.398052 464.359009,59.569771 464.359009,66.915390 
	C468.764343,66.915390 472.117493,66.915390 476.348999,66.915390 
	C475.799988,58.536388 475.535156,50.593578 474.620880,42.726246 
	C474.314453,40.089512 472.738586,37.349709 471.071930,35.170223 
	C466.662109,29.403641 459.114899,29.022112 455.002960,34.920673 
	C452.379547,38.683983 450.359467,43.638748 450.135956,48.161461 
	C449.430420,62.437622 449.657959,76.761833 449.620880,91.067696 
	C449.611816,94.555649 449.765869,98.071953 450.225037,101.524666 
	C450.616028,104.464577 451.236511,107.457253 452.322479,110.202255 
	C454.024567,114.504547 457.277283,117.276878 462.078186,117.634201 
	C467.088379,118.007103 470.217804,115.078377 472.282104,111.005760 
	C477.006073,101.686050 475.655029,91.670471 475.831665,81.590775 
	C471.917023,81.590775 468.547211,81.590775 465.313934,81.590775 
	C465.073303,82.315285 464.882233,82.628845 464.876923,82.945534 
	C464.787384,88.268471 464.721008,93.591789 464.557983,99.814384 
M178.197800,54.575745 
	C178.197800,58.676430 178.197800,62.777119 178.197800,67.013824 
	C182.199890,67.013824 185.451675,67.013824 189.790588,67.013824 
	C189.214340,58.419518 188.764420,50.187943 188.029633,41.981876 
	C187.875031,40.255253 186.866043,38.504963 185.923782,36.965740 
	C180.831238,28.646984 171.406769,28.504608 166.878586,37.133060 
	C164.720825,41.244701 163.558014,46.297985 163.415085,50.969711 
	C162.967163,65.613106 163.089752,80.279533 163.278458,94.933342 
	C163.333679,99.222015 163.994019,103.583939 165.006073,107.759834 
	C166.445023,113.697075 170.693619,117.360863 175.532791,117.658974 
	C180.275009,117.951096 184.220779,115.172104 186.687805,109.279297 
	C190.411545,100.384605 189.088425,91.049850 189.202606,81.598434 
	C185.313278,81.598434 181.945267,81.598434 178.501694,81.598434 
	C177.426102,89.019432 179.377029,96.427094 176.164612,103.273384 
	C174.945984,101.711678 174.361954,100.161850 174.356033,98.609818 
	C174.294495,82.453079 174.283401,66.295685 174.393158,50.139397 
	C174.404907,48.408104 175.270920,46.682621 175.740646,44.954445 
	C176.372665,45.004051 177.004684,45.053658 177.636703,45.103264 
	C177.823151,47.940697 178.009598,50.778126 178.197800,54.575745 
M633.886536,68.627884 
	C633.886536,84.213242 633.886536,99.798599 633.886536,115.457687 
	C637.763245,115.457687 640.949768,115.457687 643.957458,115.457687 
	C643.957458,95.071404 644.343750,75.123375 643.778809,55.202328 
	C643.531982,46.498901 638.136475,44.799419 631.213684,50.270576 
	C629.415649,43.136036 624.044312,48.011410 620.321350,46.316814 
	C620.321350,69.909538 620.321350,92.738495 620.321350,115.662933 
	C621.742188,115.763649 622.724792,115.876350 623.709229,115.896164 
	C630.669495,116.036285 630.671448,116.030212 630.672546,108.917641 
	C630.674805,94.436104 630.641418,79.954399 630.712524,65.473213 
	C630.723022,63.335159 631.223938,61.199512 631.497986,59.062752 
	C632.083130,59.079330 632.668274,59.095909 633.253357,59.112484 
	C633.464050,61.966248 633.674744,64.820015 633.886536,68.627884 
M500.883362,52.790707 
	C498.488312,48.512737 495.022064,45.831257 489.949188,46.631874 
	C484.906738,47.427692 482.421356,51.224346 481.126678,55.758774 
	C480.403046,58.293217 479.872314,60.978294 479.848846,63.600815 
	C479.737305,76.055115 479.755463,88.512192 479.914185,100.965897 
	C479.945404,103.411415 480.572937,105.919563 481.325745,108.270638 
	C482.767242,112.772331 485.818146,115.573799 490.724121,115.891968 
	C495.889404,116.226936 499.175720,113.531799 501.219727,109.075172 
	C501.907654,107.575195 502.766052,105.950027 502.779388,104.375580 
	C502.910126,88.967529 502.926636,73.557777 502.819519,58.149597 
	C502.808624,56.585991 501.775177,55.029491 500.883362,52.790707 
M331.339325,91.543800 
	C331.339294,90.545288 331.465546,89.527618 331.317474,88.551559 
	C330.669769,84.282005 332.153259,82.327431 336.725647,82.913406 
	C339.293457,83.242485 341.938019,82.972656 344.920654,82.972656 
	C344.920654,76.719803 345.396729,71.060188 344.774628,65.523987 
	C344.247620,60.833862 343.255737,55.848980 341.039948,51.771393 
	C337.033295,44.398174 327.689392,44.773167 323.910492,52.276920 
	C322.243164,55.587708 321.200745,59.547779 321.093933,63.248264 
	C320.748474,75.217484 320.769073,87.208420 321.093475,99.178932 
	C321.189545,102.724724 322.310211,106.428078 323.763458,109.703331 
	C325.456299,113.518570 328.669678,115.891304 333.202942,115.912064 
	C337.824554,115.933220 340.500183,113.328468 342.405792,109.484138 
	C345.726227,102.785583 345.263641,95.744209 344.880981,88.566467 
	C341.355286,88.566467 338.318817,88.566467 335.365448,88.566467 
	C335.026184,93.855240 334.715240,98.702568 334.404297,103.549896 
	C333.539429,103.520363 332.674561,103.490829 331.809692,103.461296 
	C331.653015,99.802849 331.496338,96.144402 331.339325,91.543800 
M674.675415,98.365852 
	C676.222961,84.337921 672.092285,70.160347 677.091675,55.999786 
	C678.805420,51.145603 675.205078,44.415318 673.977844,38.267990 
	C670.821777,38.267990 667.610413,38.267990 664.361572,38.267990 
	C663.378967,44.740936 660.502197,51.448864 662.079529,56.858017 
	C663.559937,61.934982 663.681030,66.683136 663.808472,71.576874 
	C664.098694,82.717125 663.845581,93.870468 664.032410,105.014816 
	C664.191956,114.528908 667.913696,117.265633 678.058716,115.121498 
	C677.875305,112.175652 677.979919,109.055443 677.399109,106.068527 
	C676.945129,103.733543 675.640808,101.563889 674.675415,98.365852 
M235.436523,107.265472 
	C232.292236,104.607643 231.858780,101.155495 231.927505,97.235573 
	C232.125702,85.930710 231.907684,74.618698 232.086258,63.313175 
	C232.111832,61.694584 233.935211,60.127903 234.037216,58.482082 
	C234.245346,55.124554 233.984222,51.715004 233.628708,48.357342 
	C233.496201,47.105694 232.232285,45.982819 232.064499,44.723888 
	C231.789963,42.664074 231.990265,40.540974 231.990265,38.330078 
	C228.093369,38.330078 224.889633,38.330078 221.699997,38.330078 
	C220.757584,44.747746 218.050751,51.255474 219.502213,56.642899 
	C220.960205,62.054665 221.055435,67.177673 221.177917,72.444916 
	C221.429184,83.249039 221.127472,94.066849 221.424118,104.868843 
	C221.688217,114.485901 225.095367,116.982773 235.484573,115.304825 
	C235.484573,112.980507 235.484573,110.536858 235.436523,107.265472 
M366.239227,60.470573 
	C366.239227,56.086922 366.239227,51.703270 366.239227,47.319622 
	C365.789062,47.172134 365.338867,47.024647 364.888702,46.877159 
	C363.335022,48.851902 361.781342,50.826645 360.112823,52.947300 
	C359.944244,50.702850 359.800232,48.785889 359.659332,46.910080 
	C356.034393,46.910080 352.797485,46.910080 349.577057,46.910080 
	C349.577057,70.026512 349.577057,92.725220 349.577057,115.528214 
	C353.169739,115.528214 356.390320,115.528214 360.010651,115.528214 
	C360.010651,113.514450 360.005890,111.877724 360.011444,110.241028 
	C360.045319,100.261101 359.958069,90.278160 360.202362,80.303345 
	C360.264771,77.755058 360.596161,73.820038 362.153656,72.956520 
	C367.336487,70.083000 366.166260,65.698486 366.239227,60.470573 
M303.134155,52.686836 
	C303.983093,58.843754 305.336243,64.981445 305.571869,71.161743 
	C306.009277,82.634567 305.650665,94.135345 305.896729,105.618622 
	C306.091888,114.724281 310.247314,117.530075 319.901245,114.906593 
	C319.610199,111.997086 319.566589,108.900612 318.922119,105.934708 
	C318.377533,103.428391 316.162689,100.989418 316.363098,98.665154 
	C317.586914,84.472084 313.575989,70.164490 318.660828,55.874569 
	C320.365967,51.082539 316.736450,44.392262 315.511383,38.403694 
	C312.381165,38.403694 309.207947,38.403694 306.805237,38.403694 
	C305.462341,43.311516 304.298370,47.565521 303.134155,52.686836 
M648.128540,111.263779 
	C648.238464,112.689407 648.348389,114.115028 648.457642,115.532211 
	C652.192688,115.532211 655.433838,115.532211 658.734131,115.532211 
	C658.734131,92.440369 658.734131,69.728455 658.734131,47.034981 
	C655.073486,47.034981 651.832947,47.034981 648.128906,47.034981 
	C648.128906,68.390877 648.128906,89.350967 648.128540,111.263779 
M659.109375,34.676937 
	C655.672058,33.836113 652.234802,32.995289 648.520508,32.086704 
	C648.520508,36.653511 648.520508,39.685886 648.520508,43.123547 
	C650.550354,43.123547 652.185242,43.160915 653.817627,43.112946 
	C655.421265,43.065823 657.022400,42.932022 659.145935,42.805099 
	C659.145935,40.161682 659.145935,37.890831 659.109375,34.676937 
M370.726349,43.052677 
	C380.817871,43.281380 381.554413,42.415920 379.061127,33.058296 
	C375.878143,33.058296 372.656403,33.058296 368.546539,33.058296 
	C369.005920,36.606739 369.410034,39.728374 370.726349,43.052677 
z"/>
<path fill="#04110F" opacity="1.000000" stroke="none" 
	d="
M1.000000,66.468536 
	C1.779164,63.532871 2.605530,61.079517 3.330286,58.596508 
	C11.823852,29.497587 38.817909,11.164876 70.445961,13.032373 
	C97.676712,14.640229 122.070969,37.241795 127.114044,65.287643 
	C133.567871,101.179047 108.995674,138.006851 67.609428,140.161865 
	C32.992153,141.964401 7.618878,118.315361 1.324897,87.198517 
	C1.000000,80.312355 1.000000,73.624710 1.000000,66.468536 
M11.993148,83.813408 
	C12.380172,84.900627 12.767195,85.987854 12.844234,87.860123 
	C13.095164,89.465874 13.145133,91.134811 13.627227,92.667870 
	C20.644424,114.982529 40.551910,129.408371 65.782433,130.029343 
	C67.135101,129.821548 68.487770,129.613754 70.708351,129.270584 
	C92.986282,127.257790 112.529419,109.295944 116.889786,86.825806 
	C121.368393,63.746315 109.650620,39.447350 88.843483,29.147036 
	C67.744995,19.125828 47.736176,21.253412 29.979521,36.173000 
	C15.662167,48.202801 9.189930,64.074524 11.993148,83.813408 
z"/>
<path fill="#FBFBFB" opacity="1.000000" stroke="none" 
	d="
M536.369507,115.724548 
	C535.598755,113.892960 535.001038,112.175285 534.989929,110.453812 
	C534.891663,95.289551 534.932800,80.124374 534.830017,64.960167 
	C534.816772,62.999622 534.218506,61.043041 533.891235,59.084629 
	C533.384094,59.094078 532.876892,59.103527 532.369751,59.112976 
	C532.072754,61.110432 531.534790,63.105797 531.517395,65.105682 
	C531.394287,79.268967 531.365479,93.433159 531.331726,107.597115 
	C531.309570,116.902115 531.328369,116.902161 520.622986,115.239510 
	C520.622986,96.686592 520.622986,77.929611 520.622986,59.172630 
	C519.751038,59.171474 518.879028,59.170319 518.007080,59.169163 
	C517.475830,77.754204 518.000854,96.376709 517.707642,115.436256 
	C514.290710,115.436256 511.090759,115.436256 507.496429,115.436256 
	C507.496429,92.719383 507.496429,69.988396 507.496429,46.878197 
	C510.737610,46.878197 513.988586,46.878197 517.473511,46.878197 
	C517.710815,48.352745 517.935669,49.750168 518.177979,51.256245 
	C523.993286,44.652493 525.367432,44.805489 530.622070,51.715813 
	C533.488770,50.006794 537.145935,46.409580 538.787476,47.169037 
	C541.470581,48.410378 544.435547,52.450066 544.507690,55.377628 
	C544.999084,75.316223 544.764893,95.272682 544.764893,115.836700 
	C542.027161,115.836700 539.420837,115.836700 536.369507,115.724548 
z"/>
<path fill="#FBFBFB" opacity="1.000000" stroke="none" 
	d="
M563.426575,62.157509 
	C563.107544,60.851101 562.813904,59.976540 562.520203,59.101978 
	C562.045288,59.089367 561.570312,59.076752 561.095398,59.064140 
	C560.787231,61.148857 560.222778,63.232239 560.211975,65.318497 
	C560.135071,80.142464 560.171387,94.967018 560.171631,109.791389 
	C560.171631,111.589149 560.171631,113.386909 560.171631,115.545303 
	C556.635498,115.545303 553.583191,115.545303 550.178589,115.545303 
	C550.178589,92.631721 550.178589,69.900185 550.178589,46.834908 
	C553.348938,46.834908 556.445679,46.834908 559.800476,46.834908 
	C560.014038,48.266251 560.224609,49.677143 560.541809,51.802616 
	C565.775330,43.775364 570.037903,45.505943 573.797852,53.431854 
	C574.306824,52.528503 574.449707,51.969662 574.809570,51.686073 
	C576.990601,49.967190 579.221069,48.311138 581.435059,46.634094 
	C583.324829,49.161034 585.477295,51.541584 586.999573,54.273312 
	C587.828125,55.760239 587.791138,57.842911 587.796204,59.657864 
	C587.847900,78.125168 587.827820,96.592659 587.827820,115.188309 
	C587.042847,115.450111 586.448914,115.788528 585.834106,115.832092 
	C577.408569,116.429131 577.419922,116.419106 577.404724,107.880531 
	C577.379211,93.556686 577.358337,79.232750 577.275146,64.909203 
	C577.264160,63.025177 576.897644,61.143223 576.695740,59.260311 
	C576.131287,59.196045 575.566772,59.131779 575.002319,59.067513 
	C574.675354,61.112629 574.077637,63.156052 574.064880,65.203133 
	C573.972290,80.026917 573.997681,94.851440 573.986206,109.675735 
	C573.984802,111.480476 573.985962,113.285217 573.985962,115.498116 
	C570.545959,115.498116 567.504333,115.498116 563.451904,115.498116 
	C563.451904,97.767128 563.451904,80.178246 563.426575,62.157509 
z"/>
<path fill="#F9F9F9" opacity="1.000000" stroke="none" 
	d="
M267.164490,67.474380 
	C263.623840,67.865738 262.173309,66.815788 262.355927,63.364777 
	C262.593170,58.880890 262.388947,54.369419 262.263763,49.872910 
	C262.220825,48.329510 261.844055,46.795403 261.619812,45.257046 
	C261.143829,45.180378 260.667816,45.103706 260.191803,45.027035 
	C259.737488,46.361641 258.895874,47.693855 258.887634,49.031216 
	C258.783752,65.861153 258.777954,82.691895 258.830292,99.522179 
	C258.834290,100.804169 259.468109,102.084206 259.809174,103.365150 
	C260.463867,103.328568 261.118561,103.291977 261.773254,103.255394 
	C261.773254,96.144188 261.773254,89.032990 261.773254,81.562027 
	C266.335510,81.562027 269.712128,81.562027 274.549225,81.562027 
	C273.539795,90.517906 273.191193,99.306374 271.390717,107.786575 
	C269.943817,114.601440 265.018372,117.928185 259.897156,117.678749 
	C254.736496,117.427399 250.560196,113.577835 248.976852,106.944542 
	C248.093857,103.245346 247.554626,99.375359 247.524094,95.577011 
	C247.400909,80.251663 247.282242,64.916695 247.737549,49.602398 
	C247.866150,45.277241 249.218353,40.610229 251.293564,36.799320 
	C255.716278,28.677397 264.783691,28.664110 269.807404,36.435360 
	C271.133759,38.487091 272.372009,40.926727 272.607391,43.292061 
	C273.378601,51.041775 273.669373,58.839298 274.178406,67.167648 
	C271.474640,67.293945 269.533173,67.384636 267.164490,67.474380 
z"/>
<path fill="#FAFAFA" opacity="1.000000" stroke="none" 
	d="
M425.088898,109.060547 
	C425.097198,107.322510 425.097198,106.004723 425.097198,104.143631 
	C424.045776,104.694260 423.364899,104.954376 422.792969,105.365906 
	C418.851440,108.201920 415.488617,107.767059 413.451080,103.402557 
	C412.090149,100.487366 411.335449,97.044975 411.262329,93.816933 
	C411.006256,82.514503 411.125977,71.202469 411.199615,59.894707 
	C411.212463,57.919155 411.216644,55.706100 412.065521,54.028015 
	C413.403595,51.382923 414.992157,48.138489 417.364655,46.996334 
	C418.963989,46.226383 422.095612,48.639313 424.658936,49.675781 
	C425.577148,48.948978 426.953735,47.204739 428.707733,46.646648 
	C430.640320,46.031746 432.919586,46.506355 435.330261,46.506355 
	C435.509552,48.111893 435.739594,49.213783 435.739777,50.315716 
	C435.743286,69.940224 435.802795,89.565498 435.624115,109.188553 
	C435.591400,112.782654 435.066742,116.542740 433.888519,119.918884 
	C431.733185,126.094864 427.520966,128.474915 421.196991,128.004257 
	C416.241180,127.635422 412.986664,124.289253 411.730499,118.036049 
	C411.311707,115.951324 411.248535,113.795166 411.031525,111.753616 
	C418.101044,109.422981 420.323853,110.149803 424.088074,115.696495 
	C424.418915,113.624596 424.749756,111.552689 425.088898,109.060547 
M422.051941,61.073811 
	C421.839142,72.287994 421.733795,83.497437 422.105835,95.806252 
	C423.786072,94.425148 424.251282,94.223656 424.255096,94.013695 
	C424.458313,82.917381 424.633484,71.820412 424.684906,60.722912 
	C424.685669,60.559097 423.095917,60.387905 422.051941,61.073811 
z"/>
<path fill="#FBFBFB" opacity="1.000000" stroke="none" 
	d="
M464.603760,99.364700 
	C464.721008,93.591789 464.787384,88.268471 464.876923,82.945534 
	C464.882233,82.628845 465.073303,82.315285 465.313934,81.590775 
	C468.547211,81.590775 471.917023,81.590775 475.831665,81.590775 
	C475.655029,91.670471 477.006073,101.686050 472.282104,111.005760 
	C470.217804,115.078377 467.088379,118.007103 462.078186,117.634201 
	C457.277283,117.276878 454.024567,114.504547 452.322479,110.202255 
	C451.236511,107.457253 450.616028,104.464577 450.225037,101.524666 
	C449.765869,98.071953 449.611816,94.555649 449.620880,91.067696 
	C449.657959,76.761833 449.430420,62.437622 450.135956,48.161461 
	C450.359467,43.638748 452.379547,38.683983 455.002960,34.920673 
	C459.114899,29.022112 466.662109,29.403641 471.071930,35.170223 
	C472.738586,37.349709 474.314453,40.089512 474.620880,42.726246 
	C475.535156,50.593578 475.799988,58.536388 476.348999,66.915390 
	C472.117493,66.915390 468.764343,66.915390 464.359009,66.915390 
	C464.359009,59.569771 464.359009,52.398052 464.359009,45.226337 
	C463.735626,45.129025 463.112213,45.031712 462.488831,44.934399 
	C461.978516,46.230450 461.032379,47.523655 461.023895,48.822975 
	C460.913208,65.793808 460.915253,82.765579 460.966492,99.736877 
	C460.970123,100.938126 461.581573,102.137535 463.177246,103.496811 
	C463.637482,102.269333 464.097748,101.041862 464.603760,99.364700 
z"/>
<path fill="#FAFAFA" opacity="1.000000" stroke="none" 
	d="
M380.976654,50.054848 
	C384.067596,45.330097 388.696991,46.504314 393.372437,46.655144 
	C393.701935,48.178905 393.994598,49.532360 394.084106,49.946346 
	C396.726013,48.902607 400.437469,46.242920 401.827240,47.148041 
	C404.336151,48.782082 406.752869,52.469196 406.931854,55.436218 
	C407.682037,67.870781 407.632843,80.355728 407.786530,92.823318 
	C407.878326,100.271133 407.803345,107.720993 407.803345,115.563347 
	C403.321503,115.516586 399.010590,117.794312 395.838898,113.257637 
	C389.762146,117.810341 384.116699,116.962044 381.512756,110.857819 
	C380.977539,107.501915 380.982300,104.497406 381.528717,101.483536 
	C381.709290,100.818481 381.348175,100.162781 380.991089,99.503098 
	C380.995117,99.499115 380.987610,99.489983 381.421265,99.738441 
	C383.637146,96.880371 383.478851,96.063293 380.982361,95.258263 
	C380.979645,94.503059 380.982147,93.999573 381.536255,93.523117 
	C383.003052,91.301064 384.336487,88.975677 380.991333,87.502235 
	C380.997559,87.499580 380.986115,87.491882 381.429321,87.724747 
	C383.697968,83.831917 383.552124,82.770546 380.980408,81.339806 
	C380.970276,80.945915 380.973694,80.720863 381.536377,80.522873 
	C383.002808,78.300507 384.336853,75.974678 380.979340,74.335220 
	C380.970581,73.941055 380.974854,73.715881 381.414124,73.735092 
	C382.118500,66.179596 382.396149,58.379883 382.603271,50.578297 
	C382.603516,50.569168 381.548218,50.532024 380.981842,50.444939 
	C380.977692,50.381912 380.976654,50.054848 380.976654,50.054848 
M393.979218,65.791100 
	C394.282837,71.796753 393.179413,77.926338 394.456665,83.846237 
	C395.222656,83.835808 395.988647,83.825371 396.754639,83.814934 
	C396.754639,77.538994 396.754639,71.263062 396.877808,64.175652 
	C396.587433,62.511200 396.297028,60.846748 396.006653,59.182301 
	C395.513245,59.234833 395.019867,59.287365 394.526489,59.339897 
	C394.415222,61.181587 394.303955,63.023281 393.979218,65.791100 
M396.923157,110.483078 
	C396.961639,106.158241 397.026428,101.833435 397.033295,97.508553 
	C397.049652,87.218819 397.038574,87.218803 394.075134,84.590149 
	C394.075134,94.015396 394.072418,102.676903 394.187042,111.336868 
	C394.187408,111.366516 395.885834,111.373695 396.923157,110.483078 
z"/>
<path fill="#FBFBFB" opacity="1.000000" stroke="none" 
	d="
M178.196930,54.095650 
	C178.009598,50.778126 177.823151,47.940697 177.636703,45.103264 
	C177.004684,45.053658 176.372665,45.004051 175.740646,44.954445 
	C175.270920,46.682621 174.404907,48.408104 174.393158,50.139397 
	C174.283401,66.295685 174.294495,82.453079 174.356033,98.609818 
	C174.361954,100.161850 174.945984,101.711678 176.164612,103.273384 
	C179.377029,96.427094 177.426102,89.019432 178.501694,81.598434 
	C181.945267,81.598434 185.313278,81.598434 189.202606,81.598434 
	C189.088425,91.049850 190.411545,100.384605 186.687805,109.279297 
	C184.220779,115.172104 180.275009,117.951096 175.532791,117.658974 
	C170.693619,117.360863 166.445023,113.697075 165.006073,107.759834 
	C163.994019,103.583939 163.333679,99.222015 163.278458,94.933342 
	C163.089752,80.279533 162.967163,65.613106 163.415085,50.969711 
	C163.558014,46.297985 164.720825,41.244701 166.878586,37.133060 
	C171.406769,28.504608 180.831238,28.646984 185.923782,36.965740 
	C186.866043,38.504963 187.875031,40.255253 188.029633,41.981876 
	C188.764420,50.187943 189.214340,58.419518 189.790588,67.013824 
	C185.451675,67.013824 182.199890,67.013824 178.197800,67.013824 
	C178.197800,62.777119 178.197800,58.676430 178.196930,54.095650 
z"/>
<path fill="#FAFAFA" opacity="1.000000" stroke="none" 
	d="
M604.898376,48.999470 
	C607.572693,44.005390 611.824646,47.516537 615.671631,46.519302 
	C615.671631,69.765030 615.671631,92.469521 615.671631,115.143280 
	C608.038208,117.003540 605.805786,116.392342 604.780273,113.153442 
	C602.145813,113.999336 598.841248,116.212128 597.122375,115.331177 
	C594.785400,114.133408 593.130066,110.754860 592.165710,107.970932 
	C591.216248,105.229774 591.282776,102.064507 591.268677,99.083588 
	C591.193665,83.263611 591.228394,67.443077 591.242310,51.622757 
	C591.243591,50.157185 591.365479,48.691715 591.494751,45.816654 
	C595.312317,46.689217 598.669128,47.456467 602.038452,49.075977 
	C602.095154,64.928154 602.139404,79.928062 602.116394,95.314835 
	C602.160034,98.240791 602.270874,100.779884 602.381653,103.318977 
	C603.224915,103.317047 604.068115,103.315109 604.911316,103.313171 
	C604.911316,100.542084 604.911316,97.770988 604.999512,94.538315 
	C605.024597,79.050972 604.961487,64.025223 604.898376,48.999470 
z"/>
<path fill="#FCFCFC" opacity="1.000000" stroke="none" 
	d="
M633.885986,68.150833 
	C633.674744,64.820015 633.464050,61.966248 633.253357,59.112484 
	C632.668274,59.095909 632.083130,59.079330 631.497986,59.062752 
	C631.223938,61.199512 630.723022,63.335159 630.712524,65.473213 
	C630.641418,79.954399 630.674805,94.436104 630.672546,108.917641 
	C630.671448,116.030212 630.669495,116.036285 623.709229,115.896164 
	C622.724792,115.876350 621.742188,115.763649 620.321350,115.662933 
	C620.321350,92.738495 620.321350,69.909538 620.321350,46.316814 
	C624.044312,48.011410 629.415649,43.136036 631.213684,50.270576 
	C638.136475,44.799419 643.531982,46.498901 643.778809,55.202328 
	C644.343750,75.123375 643.957458,95.071404 643.957458,115.457687 
	C640.949768,115.457687 637.763245,115.457687 633.886536,115.457687 
	C633.886536,99.798599 633.886536,84.213242 633.885986,68.150833 
z"/>
<path fill="#FBFBFB" opacity="1.000000" stroke="none" 
	d="
M501.049805,53.130199 
	C501.775177,55.029491 502.808624,56.585991 502.819519,58.149597 
	C502.926636,73.557777 502.910126,88.967529 502.779388,104.375580 
	C502.766052,105.950027 501.907654,107.575195 501.219727,109.075172 
	C499.175720,113.531799 495.889404,116.226936 490.724121,115.891968 
	C485.818146,115.573799 482.767242,112.772331 481.325745,108.270638 
	C480.572937,105.919563 479.945404,103.411415 479.914185,100.965897 
	C479.755463,88.512192 479.737305,76.055115 479.848846,63.600815 
	C479.872314,60.978294 480.403046,58.293217 481.126678,55.758774 
	C482.421356,51.224346 484.906738,47.427692 489.949188,46.631874 
	C495.022064,45.831257 498.488312,48.512737 501.049805,53.130199 
M490.081390,83.499489 
	C490.188049,90.056732 490.294678,96.613983 490.401337,103.171227 
	C491.193420,103.140106 491.985504,103.108978 492.777557,103.077850 
	C493.311310,88.441803 493.469055,73.807457 492.696136,59.177330 
	C491.824585,59.164253 490.953003,59.151173 490.081421,59.138096 
	C490.081421,66.925331 490.081421,74.712563 490.081390,83.499489 
z"/>
<path fill="#FBFBFB" opacity="1.000000" stroke="none" 
	d="
M202.920059,73.746567 
	C199.820282,73.957718 196.720520,74.168861 192.065155,74.485970 
	C193.066635,67.208794 193.319351,60.581982 195.027435,54.354332 
	C196.625702,48.527065 200.850464,46.188122 205.781219,46.513840 
	C210.586899,46.831287 213.968231,49.950405 215.582169,55.733418 
	C216.025833,57.323086 216.368149,59.003567 216.373154,60.643543 
	C216.428391,78.765121 216.407883,96.886925 216.407883,115.713806 
	C212.741516,114.979752 207.986389,118.821983 205.874374,113.196075 
	C203.469116,114.052254 200.412140,116.201355 198.986877,115.410362 
	C196.575592,114.072151 193.908890,111.014381 193.629608,108.432877 
	C192.865250,101.368172 192.211258,93.948036 193.649826,87.118622 
	C194.498718,83.088654 199.407104,79.913788 203.073395,75.977455 
	C207.043411,71.418015 207.244202,62.341557 202.920059,58.150337 
	C202.920059,64.033638 202.920059,68.890106 202.920059,73.746567 
M202.881363,93.710556 
	C203.084518,96.895927 203.287659,100.081306 203.490814,103.266678 
	C204.132172,103.236649 204.773529,103.206612 205.414886,103.176575 
	C205.414886,97.405121 205.414886,91.633659 205.414886,85.862206 
	C205.103287,85.772911 204.791687,85.683624 204.480087,85.594330 
	C203.959213,87.997742 203.438354,90.401154 202.881363,93.710556 
z"/>
<path fill="#FBFBFB" opacity="1.000000" stroke="none" 
	d="
M286.970306,73.985519 
	C283.860382,73.985519 280.750488,73.985519 276.070892,73.985519 
	C277.304810,66.687210 277.926910,59.790668 279.763550,53.234348 
	C281.066711,48.582241 285.141113,46.075336 290.284149,46.556477 
	C295.163391,47.012947 298.102814,50.040417 299.456360,54.552380 
	C300.167877,56.924084 300.767609,59.434509 300.795197,61.889290 
	C300.987976,79.052452 301.021942,96.217430 301.084625,113.381912 
	C301.086945,114.011902 300.860565,114.642731 300.683228,115.576126 
	C297.647858,115.576126 294.716217,115.576126 291.397095,115.576126 
	C291.093719,114.425888 290.749481,113.120590 290.655701,112.765015 
	C287.996490,113.759193 284.650146,116.170830 283.118347,115.319077 
	C280.635284,113.938370 278.136139,110.566437 277.789429,107.769234 
	C276.976624,101.211983 277.086823,94.476486 277.479645,87.852051 
	C277.852844,81.558327 283.633423,79.169067 288.196777,75.114426 
	C291.646454,69.429832 290.509094,64.310989 289.118195,58.374474 
	C288.060364,59.491257 287.463196,59.824478 287.446991,60.183891 
	C287.239716,64.782249 287.115540,69.384361 286.970306,73.985519 
M287.010040,95.526787 
	C287.297882,98.212975 287.585693,100.899155 287.873505,103.585342 
	C288.489746,103.532043 289.105957,103.478745 289.722168,103.425438 
	C289.722168,97.467026 289.722168,91.508621 289.722168,85.550209 
	C289.345123,85.475548 288.968079,85.400887 288.591034,85.326225 
	C288.065460,88.427483 287.539856,91.528740 287.010040,95.526787 
z"/>
<path fill="#FBFBFB" opacity="1.000000" stroke="none" 
	d="
M692.360779,82.746193 
	C692.864807,70.948242 693.368835,59.150284 693.890625,46.937286 
	C697.091675,46.937286 699.955627,46.937286 703.296021,46.937286 
	C702.785461,56.155262 702.348022,65.111313 701.779907,74.059067 
	C700.977539,86.694397 700.269104,99.340233 699.168274,111.950829 
	C698.028137,125.012718 694.919922,127.345161 681.434570,125.864212 
	C681.434570,122.858063 681.434570,119.795631 681.434570,116.257256 
	C686.309875,116.341347 685.931213,113.136322 685.503723,109.442123 
	C683.225708,89.754272 681.115051,70.047058 678.956238,50.345478 
	C678.850159,49.377769 678.836060,48.399982 678.751709,46.958229 
	C681.896606,46.958229 684.773743,46.958229 688.328491,46.958229 
	C689.199219,58.614254 690.076050,70.352051 690.924438,82.955170 
	C691.103027,85.898964 691.310120,87.977432 691.517212,90.055908 
	C691.973755,89.994186 692.430359,89.932472 692.886963,89.870758 
	C692.711548,87.495903 692.536194,85.121048 692.360779,82.746193 
z"/>
<path fill="#FCFCFC" opacity="1.000000" stroke="none" 
	d="
M331.339478,92.014877 
	C331.496338,96.144402 331.653015,99.802849 331.809692,103.461296 
	C332.674561,103.490829 333.539429,103.520363 334.404297,103.549896 
	C334.715240,98.702568 335.026184,93.855240 335.365448,88.566467 
	C338.318817,88.566467 341.355286,88.566467 344.880981,88.566467 
	C345.263641,95.744209 345.726227,102.785583 342.405792,109.484138 
	C340.500183,113.328468 337.824554,115.933220 333.202942,115.912064 
	C328.669678,115.891304 325.456299,113.518570 323.763458,109.703331 
	C322.310211,106.428078 321.189545,102.724724 321.093475,99.178932 
	C320.769073,87.208420 320.748474,75.217484 321.093933,63.248264 
	C321.200745,59.547779 322.243164,55.587708 323.910492,52.276920 
	C327.689392,44.773167 337.033295,44.398174 341.039948,51.771393 
	C343.255737,55.848980 344.247620,60.833862 344.774628,65.523987 
	C345.396729,71.060188 344.920654,76.719803 344.920654,82.972656 
	C341.938019,82.972656 339.293457,83.242485 336.725647,82.913406 
	C332.153259,82.327431 330.669769,84.282005 331.317474,88.551559 
	C331.465546,89.527618 331.339294,90.545288 331.339478,92.014877 
M334.770996,69.970169 
	C334.527405,66.219246 334.283813,62.468319 334.040222,58.717392 
	C333.143158,58.732349 332.246063,58.747303 331.348999,58.762257 
	C331.348999,63.006420 331.348999,67.250587 331.348999,71.494751 
	C332.477386,71.260704 333.605804,71.026657 334.770996,69.970169 
z"/>
<path fill="#F9F9F9" opacity="1.000000" stroke="none" 
	d="
M674.694824,98.843315 
	C675.640808,101.563889 676.945129,103.733543 677.399109,106.068527 
	C677.979919,109.055443 677.875305,112.175652 678.058716,115.121498 
	C667.913696,117.265633 664.191956,114.528908 664.032410,105.014816 
	C663.845581,93.870468 664.098694,82.717125 663.808472,71.576874 
	C663.681030,66.683136 663.559937,61.934982 662.079529,56.858017 
	C660.502197,51.448864 663.378967,44.740936 664.361572,38.267990 
	C667.610413,38.267990 670.821777,38.267990 673.977844,38.267990 
	C675.205078,44.415318 678.805420,51.145603 677.091675,55.999786 
	C672.092285,70.160347 676.222961,84.337921 674.694824,98.843315 
z"/>
<path fill="#F9F9F9" opacity="1.000000" stroke="none" 
	d="
M235.460541,107.679337 
	C235.484573,110.536858 235.484573,112.980507 235.484573,115.304825 
	C225.095367,116.982773 221.688217,114.485901 221.424118,104.868843 
	C221.127472,94.066849 221.429184,83.249039 221.177917,72.444916 
	C221.055435,67.177673 220.960205,62.054665 219.502213,56.642899 
	C218.050751,51.255474 220.757584,44.747746 221.699997,38.330078 
	C224.889633,38.330078 228.093369,38.330078 231.990265,38.330078 
	C231.990265,40.540974 231.789963,42.664074 232.064499,44.723888 
	C232.232285,45.982819 233.496201,47.105694 233.628708,48.357342 
	C233.984222,51.715004 234.245346,55.124554 234.037216,58.482082 
	C233.935211,60.127903 232.111832,61.694584 232.086258,63.313175 
	C231.907684,74.618698 232.125702,85.930710 231.927505,97.235573 
	C231.858780,101.155495 232.292236,104.607643 235.460541,107.679337 
z"/>
<path fill="#FAFAFA" opacity="1.000000" stroke="none" 
	d="
M366.239319,60.957897 
	C366.166260,65.698486 367.336487,70.083000 362.153656,72.956520 
	C360.596161,73.820038 360.264771,77.755058 360.202362,80.303345 
	C359.958069,90.278160 360.045319,100.261101 360.011444,110.241028 
	C360.005890,111.877724 360.010651,113.514450 360.010651,115.528214 
	C356.390320,115.528214 353.169739,115.528214 349.577057,115.528214 
	C349.577057,92.725220 349.577057,70.026512 349.577057,46.910080 
	C352.797485,46.910080 356.034393,46.910080 359.659332,46.910080 
	C359.800232,48.785889 359.944244,50.702850 360.112823,52.947300 
	C361.781342,50.826645 363.335022,48.851902 364.888702,46.877159 
	C365.338867,47.024647 365.789062,47.172134 366.239227,47.319622 
	C366.239227,51.703270 366.239227,56.086922 366.239319,60.957897 
z"/>
<path fill="#FCFCFC" opacity="1.000000" stroke="none" 
	d="
M303.134277,52.253181 
	C304.298370,47.565521 305.462341,43.311516 306.805237,38.403694 
	C309.207947,38.403694 312.381165,38.403694 315.511383,38.403694 
	C316.736450,44.392262 320.365967,51.082539 318.660828,55.874569 
	C313.575989,70.164490 317.586914,84.472084 316.363098,98.665154 
	C316.162689,100.989418 318.377533,103.428391 318.922119,105.934708 
	C319.566589,108.900612 319.610199,111.997086 319.901245,114.906593 
	C310.247314,117.530075 306.091888,114.724281 305.896729,105.618622 
	C305.650665,94.135345 306.009277,82.634567 305.571869,71.161743 
	C305.336243,64.981445 303.983093,58.843754 303.134277,52.253181 
z"/>
<path fill="#FBFBFB" opacity="1.000000" stroke="none" 
	d="
M380.987610,99.489983 
	C380.987610,99.489983 380.995117,99.499115 380.724060,99.999557 
	C380.631042,100.830956 380.809052,101.161919 380.987061,101.492889 
	C380.982300,104.497406 380.977539,107.501915 380.973572,110.532288 
	C379.016785,116.622902 378.517273,116.834526 369.236053,115.325256 
	C369.236053,92.650215 369.236053,69.915115 369.236053,46.510723 
	C373.007507,47.621578 377.437744,43.946404 380.637817,49.590424 
	C380.976654,50.054848 380.977692,50.381912 380.588654,50.698357 
	C380.462006,58.506824 380.724396,65.998840 380.986816,73.490860 
	C380.974854,73.715881 380.970581,73.941055 380.594116,74.543289 
	C380.471069,76.778778 380.727905,78.637352 380.984741,80.495934 
	C380.973694,80.720863 380.970276,80.945915 380.614563,81.576523 
	C380.498474,83.818596 380.742310,85.655243 380.986115,87.491882 
	C380.986115,87.491882 380.997559,87.499580 380.617065,87.735184 
	C380.485962,89.812553 380.735321,91.654312 380.984650,93.496078 
	C380.982147,93.999573 380.979645,94.503059 380.610931,95.689583 
	C380.492340,97.411736 380.739990,98.450859 380.987610,99.489983 
z"/>
<path fill="#FBFBFB" opacity="1.000000" stroke="none" 
	d="
M648.128723,110.787422 
	C648.128906,89.350967 648.128906,68.390877 648.128906,47.034981 
	C651.832947,47.034981 655.073486,47.034981 658.734131,47.034981 
	C658.734131,69.728455 658.734131,92.440369 658.734131,115.532211 
	C655.433838,115.532211 652.192688,115.532211 648.457642,115.532211 
	C648.348389,114.115028 648.238464,112.689407 648.128723,110.787422 
z"/>
<path fill="#828282" opacity="1.000000" stroke="none" 
	d="
M602.183594,94.927979 
	C602.139404,79.928062 602.095154,64.928154 602.114746,49.463264 
	C602.858521,48.998650 603.538513,48.999012 604.558472,48.999420 
	C604.961487,64.025223 605.024597,79.050972 604.545288,94.523056 
	C603.396484,94.955589 602.790039,94.941780 602.183594,94.927979 
z"/>
<path fill="#FAFAFA" opacity="1.000000" stroke="none" 
	d="
M659.127686,35.148460 
	C659.145935,37.890831 659.145935,40.161682 659.145935,42.805099 
	C657.022400,42.932022 655.421265,43.065823 653.817627,43.112946 
	C652.185242,43.160915 650.550354,43.123547 648.520508,43.123547 
	C648.520508,39.685886 648.520508,36.653511 648.520508,32.086704 
	C652.234802,32.995289 655.672058,33.836113 659.127686,35.148460 
z"/>
<path fill="#FAFAFA" opacity="1.000000" stroke="none" 
	d="
M370.270264,42.951344 
	C369.410034,39.728374 369.005920,36.606739 368.546539,33.058296 
	C372.656403,33.058296 375.878143,33.058296 379.061127,33.058296 
	C381.554413,42.415920 380.817871,43.281380 370.270264,42.951344 
z"/>
<path fill="#929292" opacity="1.000000" stroke="none" 
	d="
M202.928024,74.102539 
	C202.920059,68.890106 202.920059,64.033638 202.920059,58.150337 
	C207.244202,62.341557 207.043411,71.418015 203.315704,75.741043 
	C202.961639,75.407204 202.948822,74.932861 202.928024,74.102539 
z"/>
<path fill="#8A8A8A" opacity="1.000000" stroke="none" 
	d="
M287.175201,74.126251 
	C287.115540,69.384361 287.239716,64.782249 287.446991,60.183891 
	C287.463196,59.824478 288.060364,59.491257 289.118195,58.374474 
	C290.509094,64.310989 291.646454,69.429832 288.359528,74.821205 
	C287.846619,74.737770 287.634918,74.484367 287.175201,74.126251 
z"/>
<path fill="#B0B0B0" opacity="1.000000" stroke="none" 
	d="
M692.140930,82.797775 
	C692.536194,85.121048 692.711548,87.495903 692.886963,89.870758 
	C692.430359,89.932472 691.973755,89.994186 691.517212,90.055908 
	C691.310120,87.977432 691.103027,85.898964 690.966003,83.398811 
	C691.343933,83.023369 691.638916,82.980782 692.140930,82.797775 
z"/>
<path fill="#FBD7A1" opacity="1.000000" stroke="none" 
	d="
M65.076134,130.018539 
	C40.551910,129.408371 20.644424,114.982529 13.627227,92.667870 
	C13.145133,91.134811 13.095164,89.465874 13.343094,87.413803 
	C17.300541,85.016312 20.550261,82.196098 24.263315,81.303680 
	C30.982567,79.688736 35.092003,75.006828 39.316917,70.397705 
	C40.452183,69.159195 40.785511,66.660782 40.581890,64.842049 
	C40.271523,62.069862 38.969769,59.423344 38.459942,56.655140 
	C37.812881,53.141808 37.074314,49.529297 37.308174,46.021755 
	C37.415108,44.417912 39.531391,42.562191 41.191746,41.645523 
	C41.819580,41.298904 43.975353,43.066097 44.992256,44.249798 
	C46.161644,45.611000 46.860706,47.382595 47.729084,48.994774 
	C49.826786,52.889221 52.865795,54.549583 57.478912,54.416145 
	C69.204971,54.076954 76.557236,47.876007 81.435867,37.817562 
	C82.135284,36.375542 83.347801,35.182392 84.322853,33.874065 
	C84.855812,34.052597 85.388779,34.231129 85.921738,34.409660 
	C85.683159,37.088200 85.214157,39.770752 85.260742,42.444321 
	C85.328278,46.319256 84.689079,50.709187 86.258636,53.958012 
	C90.434486,62.601643 93.612961,70.984787 89.819450,80.615906 
	C89.062790,82.536949 88.615356,85.056160 89.194939,86.939644 
	C91.086922,93.088112 88.318405,96.363922 83.124222,98.711029 
	C81.164825,99.596420 79.421730,100.948601 77.529556,101.996864 
	C72.016098,105.051323 69.174339,109.796242 68.137413,115.933929 
	C67.337944,120.666130 66.112297,125.326324 65.076134,130.018539 
z"/>
<path fill="#FB9985" opacity="1.000000" stroke="none" 
	d="
M89.323486,29.661991 
	C109.650620,39.447350 121.368393,63.746315 116.889786,86.825806 
	C112.529419,109.295944 92.986282,127.257790 70.240677,128.900360 
	C71.149727,116.084473 74.611092,105.229050 88.107361,100.418327 
	C92.934280,98.697777 94.576607,94.193878 93.632210,88.826714 
	C93.190010,86.313629 93.218994,83.407852 94.048744,81.034683 
	C97.531654,71.073250 94.562340,62.117451 90.570747,53.147419 
	C89.626999,51.026619 89.066071,48.570255 89.012070,46.252338 
	C88.891106,41.059437 91.740700,35.753956 88.560867,30.441496 
	C88.985985,30.009848 89.154739,29.835920 89.323486,29.661991 
z"/>
<path fill="#F79783" opacity="1.000000" stroke="none" 
	d="
M11.992243,83.085007 
	C9.189930,64.074524 15.662167,48.202801 29.979521,36.173000 
	C47.736176,21.253412 67.744995,19.125828 89.083481,29.404514 
	C89.154739,29.835920 88.985985,30.009848 88.277145,30.275364 
	C83.418663,29.280460 79.752434,31.133785 77.928177,34.701736 
	C76.141510,38.196159 74.279999,41.827503 71.670509,44.685909 
	C67.519623,49.232727 61.558029,51.237247 55.799000,50.193695 
	C53.111248,49.706665 51.107647,45.256763 48.876122,42.535667 
	C48.037663,41.513256 47.680664,39.906017 46.663292,39.263649 
	C45.027153,38.230591 42.900047,36.967022 41.200386,37.228874 
	C35.778099,38.064255 32.706039,41.431107 33.047680,46.818089 
	C33.397808,52.338913 34.531139,57.875877 35.952759,63.238476 
	C36.817562,66.500664 36.451424,68.918236 33.691330,70.565842 
	C26.521955,74.845528 19.233299,78.925400 11.992243,83.085007 
z"/>
<path fill="#17120E" opacity="1.000000" stroke="none" 
	d="
M11.992695,83.449203 
	C19.233299,78.925400 26.521955,74.845528 33.691330,70.565842 
	C36.451424,68.918236 36.817562,66.500664 35.952759,63.238476 
	C34.531139,57.875877 33.397808,52.338913 33.047680,46.818089 
	C32.706039,41.431107 35.778099,38.064255 41.200386,37.228874 
	C42.900047,36.967022 45.027153,38.230591 46.663292,39.263649 
	C47.680664,39.906017 48.037663,41.513256 48.876122,42.535667 
	C51.107647,45.256763 53.111248,49.706665 55.799000,50.193695 
	C61.558029,51.237247 67.519623,49.232727 71.670509,44.685909 
	C74.279999,41.827503 76.141510,38.196159 77.928177,34.701736 
	C79.752434,31.133785 83.418663,29.280460 88.020790,30.533085 
	C91.740700,35.753956 88.891106,41.059437 89.012070,46.252338 
	C89.066071,48.570255 89.626999,51.026619 90.570747,53.147419 
	C94.562340,62.117451 97.531654,71.073250 94.048744,81.034683 
	C93.218994,83.407852 93.190010,86.313629 93.632210,88.826714 
	C94.576607,94.193878 92.934280,98.697777 88.107361,100.418327 
	C74.611092,105.229050 71.149727,116.084473 69.806725,128.968048 
	C68.487770,129.613754 67.135101,129.821548 65.429283,130.023941 
	C66.112297,125.326324 67.337944,120.666130 68.137413,115.933929 
	C69.174339,109.796242 72.016098,105.051323 77.529556,101.996864 
	C79.421730,100.948601 81.164825,99.596420 83.124222,98.711029 
	C88.318405,96.363922 91.086922,93.088112 89.194939,86.939644 
	C88.615356,85.056160 89.062790,82.536949 89.819450,80.615906 
	C93.612961,70.984787 90.434486,62.601643 86.258636,53.958012 
	C84.689079,50.709187 85.328278,46.319256 85.260742,42.444321 
	C85.214157,39.770752 85.683159,37.088200 85.921738,34.409660 
	C85.388779,34.231129 84.855812,34.052597 84.322853,33.874065 
	C83.347801,35.182392 82.135284,36.375542 81.435867,37.817562 
	C76.557236,47.876007 69.204971,54.076954 57.478912,54.416145 
	C52.865795,54.549583 49.826786,52.889221 47.729084,48.994774 
	C46.860706,47.382595 46.161644,45.611000 44.992256,44.249798 
	C43.975353,43.066097 41.819580,41.298904 41.191746,41.645523 
	C39.531391,42.562191 37.415108,44.417912 37.308174,46.021755 
	C37.074314,49.529297 37.812881,53.141808 38.459942,56.655140 
	C38.969769,59.423344 40.271523,62.069862 40.581890,64.842049 
	C40.785511,66.660782 40.452183,69.159195 39.316917,70.397705 
	C35.092003,75.006828 30.982567,79.688736 24.263315,81.303680 
	C20.550261,82.196098 17.300541,85.016312 13.498087,87.021286 
	C12.767195,85.987854 12.380172,84.900627 11.992695,83.449203 
z"/>
<path fill="#8A8A8A" opacity="1.000000" stroke="none" 
	d="
M422.150208,60.646980 
	C423.095917,60.387905 424.685669,60.559097 424.684906,60.722912 
	C424.633484,71.820412 424.458313,82.917381 424.255096,94.013695 
	C424.251282,94.223656 423.786072,94.425148 422.105835,95.806252 
	C421.733795,83.497437 421.839142,72.287994 422.150208,60.646980 
z"/>
<path fill="#888888" opacity="1.000000" stroke="none" 
	d="
M396.857178,110.937225 
	C395.885834,111.373695 394.187408,111.366516 394.187042,111.336868 
	C394.072418,102.676903 394.075134,94.015396 394.075134,84.590149 
	C397.038574,87.218803 397.049652,87.218819 397.033295,97.508553 
	C397.026428,101.833435 396.961639,106.158241 396.857178,110.937225 
z"/>
<path fill="#858585" opacity="1.000000" stroke="none" 
	d="
M381.414093,73.735092 
	C380.724396,65.998840 380.462006,58.506824 380.592804,50.761387 
	C381.548218,50.532024 382.603516,50.569168 382.603271,50.578297 
	C382.396149,58.379883 382.118500,66.179596 381.414093,73.735092 
z"/>
<path fill="#888888" opacity="1.000000" stroke="none" 
	d="
M396.754639,64.987129 
	C396.754639,71.263062 396.754639,77.538994 396.754639,83.814934 
	C395.988647,83.825371 395.222656,83.835808 394.456665,83.846237 
	C393.179413,77.926338 394.282837,71.796753 394.516541,65.376587 
	C395.620758,64.970428 396.187714,64.978775 396.754639,64.987129 
z"/>
<path fill="#858585" opacity="1.000000" stroke="none" 
	d="
M381.429321,87.724747 
	C380.742310,85.655243 380.498474,83.818596 380.620544,81.745239 
	C383.552124,82.770546 383.697968,83.831917 381.429321,87.724747 
z"/>
<path fill="#828282" opacity="1.000000" stroke="none" 
	d="
M396.816223,64.581390 
	C396.187714,64.978775 395.620758,64.970428 394.623260,64.913528 
	C394.303955,63.023281 394.415222,61.181587 394.526489,59.339897 
	C395.019867,59.287365 395.513245,59.234833 396.006653,59.182301 
	C396.297028,60.846748 396.587433,62.511200 396.816223,64.581390 
z"/>
<path fill="#858585" opacity="1.000000" stroke="none" 
	d="
M381.536377,80.522873 
	C380.727905,78.637352 380.471069,76.778778 380.599487,74.712135 
	C384.336853,75.974678 383.002808,78.300507 381.536377,80.522873 
z"/>
<path fill="#858585" opacity="1.000000" stroke="none" 
	d="
M381.536255,93.523117 
	C380.735321,91.654312 380.485962,89.812553 380.610840,87.737839 
	C384.336487,88.975677 383.003052,91.301064 381.536255,93.523117 
z"/>
<path fill="#858585" opacity="1.000000" stroke="none" 
	d="
M381.421265,99.738441 
	C380.739990,98.450859 380.492340,97.411736 380.616150,95.941292 
	C383.478851,96.063293 383.637146,96.880371 381.421265,99.738441 
z"/>
<path fill="#858585" opacity="1.000000" stroke="none" 
	d="
M381.528748,101.483536 
	C380.809052,101.161919 380.631042,100.830956 380.720062,100.003540 
	C381.348175,100.162781 381.709290,100.818481 381.528748,101.483536 
z"/>
<path fill="#828282" opacity="1.000000" stroke="none" 
	d="
M602.116394,95.314835 
	C602.790039,94.941780 603.396484,94.955589 604.457153,94.984650 
	C604.911316,97.770988 604.911316,100.542084 604.911316,103.313171 
	C604.068115,103.315109 603.224915,103.317047 602.381653,103.318977 
	C602.270874,100.779884 602.160034,98.240791 602.116394,95.314835 
z"/>
<path fill="#8B8B8B" opacity="1.000000" stroke="none" 
	d="
M490.081421,82.999649 
	C490.081421,74.712563 490.081421,66.925331 490.081421,59.138096 
	C490.953003,59.151173 491.824585,59.164253 492.696136,59.177330 
	C493.469055,73.807457 493.311310,88.441803 492.777557,103.077850 
	C491.985504,103.108978 491.193420,103.140106 490.401337,103.171227 
	C490.294678,96.613983 490.188049,90.056732 490.081421,82.999649 
z"/>
<path fill="#8A8A8A" opacity="1.000000" stroke="none" 
	d="
M202.899414,93.257553 
	C203.438354,90.401154 203.959213,87.997742 204.480087,85.594330 
	C204.791687,85.683624 205.103287,85.772911 205.414886,85.862206 
	C205.414886,91.633659 205.414886,97.405121 205.414886,103.176575 
	C204.773529,103.206612 204.132172,103.236649 203.490814,103.266678 
	C203.287659,100.081306 203.084518,96.895927 202.899414,93.257553 
z"/>
<path fill="#8B8B8B" opacity="1.000000" stroke="none" 
	d="
M287.012146,95.078392 
	C287.539856,91.528740 288.065460,88.427483 288.591034,85.326225 
	C288.968079,85.400887 289.345123,85.475548 289.722168,85.550209 
	C289.722168,91.508621 289.722168,97.467026 289.722168,103.425438 
	C289.105957,103.478745 288.489746,103.532043 287.873505,103.585342 
	C287.585693,100.899155 287.297882,98.212975 287.012146,95.078392 
z"/>
<path fill="#9D9D9D" opacity="1.000000" stroke="none" 
	d="
M334.752594,70.381393 
	C333.605804,71.026657 332.477386,71.260704 331.348999,71.494751 
	C331.348999,67.250587 331.348999,63.006420 331.348999,58.762257 
	C332.246063,58.747303 333.143158,58.732349 334.040222,58.717392 
	C334.283813,62.468319 334.527405,66.219246 334.752594,70.381393 
z"/>
</svg>