<?xml version="1.0" encoding="utf-8"?>
<svg viewBox="0.57 3.212 143.6753 30.6982" width="143.6753" height="30.6982" xmlns="http://www.w3.org/2000/svg" xmlns:bx="https://boxy-svg.com">
  <defs>
    <style bx:fonts="Krona One">@import url(https://fonts.googleapis.com/css2?family=Krona+One%3Aital%2Cwght%400%2C400&amp;display=swap);</style>
  </defs>
  <text style="fill: rgb(255, 255, 255); font-family: 'Krona One'; font-size: 2.7px; white-space: pre;" transform="matrix(4.687464237213135, 0, 0, 4.687464237213135, -120.15970611572266, -146.2540740966797)"><tspan x="33.46" y="34.882">Cat Catering </tspan><tspan x="33.46" dy="1em">​</tspan><tspan>Community</tspan></text>
  <ellipse style="stroke: rgb(0, 0, 0); fill: rgb(255, 103, 0);" cx="15.452" cy="18.094" rx="14.882" ry="14.882"/>
  <path style="stroke: rgb(0, 0, 0); fill: rgb(255, 225, 192);" d="M 1.071 21.227 C 1.233 20.74 1.795 20.799 2.074 20.52 C 2.491 20.102 3.267 19.798 3.784 19.281 C 4.053 19.013 4.675 19.16 5.023 18.986 C 5.815 18.59 6.952 17.824 7.56 17.216 C 7.839 16.936 7.96 16.462 8.268 16.154 C 8.643 15.779 8.049 14.302 7.914 14.031 C 7.3 12.804 7.188 10.087 8.504 9.43 C 9.279 9.042 10.394 10.201 10.686 10.786 C 10.988 11.389 11.37 11.824 11.866 12.32 C 12.18 12.634 13.916 12.327 14.167 12.202 C 14.547 12.012 15.089 12.153 15.464 11.966 C 16.632 11.382 17.163 10.386 18.001 9.547 C 18.087 9.461 18.054 8.969 18.119 8.84 C 18.391 8.295 18.849 7.737 19.24 7.542 C 19.325 7.499 19.706 7.301 19.83 7.424 C 20.264 7.858 20.31 9.944 20.007 10.55 C 19.926 10.711 20.129 11.195 20.007 11.317 C 19.918 11.406 19.789 11.884 19.889 12.084 C 20.075 12.456 20.194 12.561 20.537 12.733 C 20.625 12.777 20.526 13.253 20.596 13.323 C 20.926 13.653 20.802 14.265 21.009 14.68 C 21.712 16.084 21.785 18.024 21.068 19.458 C 20.841 19.912 21.127 20.935 21.127 21.404 C 21.127 21.508 21.193 21.988 21.127 22.053 C 20.947 22.234 20.863 22.613 20.655 22.82 C 20.268 23.207 19.562 23.678 19.063 24.177 C 18.493 24.747 17.421 24.521 16.88 25.062 C 16.584 25.358 16.497 26.433 16.231 26.831 C 16.105 27.02 16.342 27.547 16.172 27.716 C 15.81 28.078 16.096 28.893 15.818 29.309 C 15.528 29.744 15.641 30.312 15.464 30.843 C 15.147 31.796 15.621 32.161 14.875 32.907 C 14.828 32.954 13.279 32.611 13.164 32.553 C 12.622 32.283 11.546 32.293 11.099 31.846 C 11.04 31.787 10.804 31.905 10.745 31.846 C 10.276 31.377 9.169 31.509 8.622 30.961 C 8.153 30.492 7.177 30.465 6.624 30.002 C 6.266 29.702 5.791 28.98 5.236 28.702 C 4.916 28.542 4.207 27.943 4.001 27.617 C 3.588 26.963 3.284 26.532 2.843 25.904 C 2.633 25.604 2.632 25.332 2.306 24.777 C 1.873 24.039 0.871 21.796 0.871 20.911"/>
</svg>
